<svg fill="none" height="33" viewBox="0 0 212 33" width="212" xmlns="http://www.w3.org/2000/svg"><path clip-rule="evenodd" d="m11.8151 26.3483c-3.03818-.0243-5.48054-2.4484-5.45559-5.4145s2.50818-5.3507 5.54609-5.3261c3.0383.0244 5.4806 2.4486 5.4557 5.4145-.025 2.9661-2.5082 5.3507-5.5462 5.3261zm11.9032-5.3787c.1491-2.8521-.8523-7.5206-3.3042-11.33661-.065-.09898-.1757-.05986-.1521.04483.1635.58168.2028 1.63268-.7445 1.57048-1.6782-.1098.0587-3.61647-3.6272-6.04905-.0737-.04872-.1619.01632-.1215.09406.2527.469.4029 1.93145-.181 2.42999-.4685.39982-1.3284.29228-2.1552-1.0248-1.3781-2.19472-.8549-4.54154.0815-6.00736.0703-.109606-.026-.153138-.1062-.127226-5.07051 1.633726-6.0828 7.467476-7.16172 9.595386-.18101.3565-.33788.5431-.64735.5229-.92338-.0604-.25825-1.98384.06158-2.6534.04485-.09432-.06609-.1464-.12581-.08551-2.61037 2.66341-4.973366 7.19801-5.42245 11.41171.014332-.0997-.0419358.3483-.0692737.6763v.0008c-.0106166.1285-.0193753.2573-.0265416.3864-.00743162.1541-.01459786.3086-.01592494.4643-.05387946 6.3945 5.21250024 11.6208 11.76249024 11.6734 6.5499.0526 11.9033-5.0882 11.9575-11.4827.0002-.035-.0021-.0692-.0021-.1039z" fill="#ef4e23" fill-rule="evenodd"/><g fill="#053d4e"></g></svg>